Coordinates
version=1
nRows=4
nColumns=124
inDegrees=yes

Units are S.I. units (second, meters, Newtons, ...)
If the header above contains a line with 'inDegrees', this indicates whether rotational values are in degrees (yes) or radians (no).

endheader 
time	pelvis_tilt	pelvis_list	pelvis_rotation	pelvis_tx	pelvis_ty	pelvis_tz	hip_flexion_l	hip_adduction_l	hip_rotation_l	hip_flexion_r	hip_adduction_r	hip_rotation_r	knee_angle_l	knee_angle_r	ankle_angle_l	ankle_angle_r	subtalar_angle_l	subtalar_angle_r	mtp_angle_l	mtp_angle_r	lumbar_extension	lumbar_bending	lumbar_rotation	arm_flex_l	arm_add_l	arm_rot_l	arm_flex_r	arm_add_r	arm_rot_r	elbow_flex_l	elbow_flex_r	glut_med1_l/activation	glut_med2_l/activation	glut_med3_l/activation	glut_min1_l/activation	glut_min2_l/activation	glut_min3_l/activation	semimem_l/activation	semiten_l/activation	bifemlh_l/activation	bifemsh_l/activation	sar_l/activation	add_long_l/activation	add_brev_l/activation	add_mag1_l/activation	add_mag2_l/activation	add_mag3_l/activation	tfl_l/activation	pect_l/activation	grac_l/activation	glut_max1_l/activation	glut_max2_l/activation	glut_max3_l/activation	iliacus_l/activation	psoas_l/activation	quad_fem_l/activation	gem_l/activation	peri_l/activation	rect_fem_l/activation	vas_med_l/activation	vas_int_l/activation	vas_lat_l/activation	med_gas_l/activation	lat_gas_l/activation	soleus_l/activation	tib_post_l/activation	flex_dig_l/activation	flex_hal_l/activation	tib_ant_l/activation	per_brev_l/activation	per_long_l/activation	per_tert_l/activation	ext_dig_l/activation	ext_hal_l/activation	ercspn_l/activation	intobl_l/activation	extobl_l/activation	glut_med1_r/activation	glut_med2_r/activation	glut_med3_r/activation	glut_min1_r/activation	glut_min2_r/activation	glut_min3_r/activation	semimem_r/activation	semiten_r/activation	bifemlh_r/activation	bifemsh_r/activation	sar_r/activation	add_long_r/activation	add_brev_r/activation	add_mag1_r/activation	add_mag2_r/activation	add_mag3_r/activation	tfl_r/activation	pect_r/activation	grac_r/activation	glut_max1_r/activation	glut_max2_r/activation	glut_max3_r/activation	iliacus_r/activation	psoas_r/activation	quad_fem_r/activation	gem_r/activation	peri_r/activation	rect_fem_r/activation	vas_med_r/activation	vas_int_r/activation	vas_lat_r/activation	med_gas_r/activation	lat_gas_r/activation	soleus_r/activation	tib_post_r/activation	flex_dig_r/activation	flex_hal_r/activation	tib_ant_r/activation	per_brev_r/activation	per_long_r/activation	per_tert_r/activation	ext_dig_r/activation	ext_hal_r/activation	ercspn_r/activation	intobl_r/activation	extobl_r/activation	
          0.00000000	         -7.88533589	         -7.42732060	          3.59840002	          0.00000000	          0.88441409	         -0.01213669	        -17.45507699	         -6.63287130	         -0.03435554	         30.78061076	          6.00936445	         -8.80708621	         -4.95155485	         -0.01587106	          4.59961286	         -0.46189250	          3.35512179	          5.48455454	         35.93340872	          0.28065946	          3.03492013	          5.12567193	         -2.78689459	        -13.52109734	        -13.81873934	          9.67749245	        -33.22852655	        -13.73479723	         12.54700034	        102.16912430	         20.28253300	          0.24708996	          0.08517066	          0.08516579	          0.71311898	          0.14527463	          0.08518084	          0.07481698	          0.06925693	          0.05002608	          0.11844946	          0.05414667	          0.34675553	          0.41321105	          0.05005711	          0.14397188	          0.05276840	          0.54246553	          0.25340560	          0.08518135	          0.05010789	          0.05006925	          0.05002850	          0.55577992	          0.76187806	          0.06730984	          0.05010196	          0.08515893	          0.05000609	          0.05008894	          0.05006791	          0.05311084	          0.35620642	          0.52468294	          0.30496092	          0.71125735	          0.64942741	          0.61958146	          0.05010238	          0.05000425	          0.05000293	          0.05000491	          0.05000148	          0.05000999	          0.08285690	          0.05000092	          0.05000871	          0.05001167	          0.05000808	          0.05000782	          0.05058992	          0.05003516	          0.05002255	          0.24681167	          0.27909779	          0.27944867	          0.36373520	          0.08518531	          0.30269449	          0.40078654	          0.12320848	          0.05002322	          0.24690274	          0.05006197	          0.08500434	          0.41321389	          0.05001037	          0.05000714	          0.05000566	          0.09360036	          0.10547869	          0.11983333	          0.08518312	          0.05034858	          0.05000108	          0.05000905	          0.05000784	          0.05000794	          0.05041316	          0.05041318	          0.05041369	          0.05041303	          0.05041344	          0.05041358	          0.05041381	          0.05041320	          0.05041303	          0.05041326	          0.05041347	          0.05041353	          0.06096777	          0.18456443	          0.15376936	
          0.04219813	         -7.72873157	         -7.33393558	          3.40272068	          0.06721836	          0.88195208	         -0.01037410	        -13.37184516	         -7.05198745	         -1.73689503	         28.93952005	          6.76547490	         -4.77704015	        -20.47466469	         -4.56584435	          1.55715864	         -3.33859880	          5.11778467	          2.53432148	         39.13481766	          0.19510765	          3.56566512	          6.66638606	         -3.80299299	        -11.68124081	        -13.98158101	         13.55946336	        -34.76084785	        -13.64579697	         12.43213472	        104.13044813	         18.55856911	          0.14506820	          0.05000488	          0.05000145	          0.42722725	          0.08529675	          0.05001209	          0.08801194	          0.05005303	          0.05001325	          0.06954205	          0.05001716	          0.37466078	          0.45306484	          0.56804119	          0.08523500	          0.08516454	          0.63575058	          0.14879503	          0.05002001	          0.05003998	          0.05002646	          0.06573057	          0.32629687	          0.44729612	          0.05000149	          0.05000582	          0.05000327	          0.05000152	          0.05000152	          0.05000135	          0.05000094	          0.20912725	          0.30803991	          0.17904133	          0.41758029	          0.38128477	          0.36376231	          0.05000293	          0.05000736	          0.05000957	          0.05000684	          0.14563532	          0.05000916	          0.18754764	          0.05000068	          0.05000287	          0.18950966	          0.52247649	          0.75085855	          0.40969898	          0.33832775	          0.39613116	          0.14490529	          0.16454186	          0.16517133	          0.21357340	          0.05002114	          0.17771588	          0.23533753	          0.22133206	          0.27462374	          0.20611339	          0.05002250	          0.05018523	          0.27230232	          0.36876674	          0.30721007	          0.22251679	          0.05495379	          0.06192757	          0.07035561	          0.05002515	          0.37086759	          0.05000198	          0.05000897	          0.05000767	          0.05000735	          0.05042611	          0.05042604	          0.05042639	          0.05042549	          0.05042599	          0.05042613	          0.05042667	          0.05042609	          0.05042595	          0.05042597	          0.05042631	          0.05042630	          0.09906132	          0.10835787	          0.09027759	
          0.08439626	         -7.59159358	         -7.28125876	          2.17196116	          0.12808432	          0.88935476	         -0.00715662	         -6.01895485	         -8.06663284	         -3.20227210	         25.99937382	          8.33274131	         -0.44375765	        -39.09127375	         -7.02847936	         -5.14370515	         -1.62637227	          7.13219268	         -4.90811704	         28.84697928	          0.19912485	          3.64256374	          8.26716615	         -4.58156969	         -8.61429045	        -13.73207256	         16.48991461	        -30.99479271	        -13.51256339	         14.55038465	         99.48280289	         11.72321058	          0.08516997	          0.05000565	          0.05000905	          0.25082511	          0.05008757	          0.05003608	          0.11402214	          0.10450115	          0.07011614	          0.07340487	          0.27246279	          0.26121119	          0.57080390	          0.33349988	          0.05004810	          0.05000324	          0.88990798	          0.68057303	          0.26707600	          0.05005192	          0.05001726	          0.05000179	          0.19157194	          0.26260869	          0.62286170	          0.23990212	          0.05014808	          0.05000104	          0.05000048	          0.05000044	          0.05000033	          0.12277827	          0.18085155	          0.10511441	          0.24516176	          0.22385704	          0.21356881	          0.05000322	          0.10694356	          0.05549152	          0.75085142	          0.73459664	          0.49806758	          0.21795123	          0.09359847	          0.05000440	          0.14337410	          0.33914264	          0.44520080	          0.24054459	          0.19864794	          0.23258328	          0.10426531	          0.15261537	          0.12448150	          0.12539278	          0.05000924	          0.10434354	          0.24710782	          0.25893961	          0.35367209	          0.22429617	          0.05000797	          0.05022221	          0.26340812	          0.43595280	          0.37877987	          0.30881090	          0.05000222	          0.05000228	          0.14519897	          0.05005264	          0.21773816	          0.05000273	          0.08839613	          0.09794902	          0.08921670	          0.05042474	          0.05042469	          0.05042506	          0.05042405	          0.05042472	          0.05042484	          0.05042526	          0.05042490	          0.05042474	          0.05042473	          0.05042494	          0.05042491	          0.06535295	          0.06361698	          0.05300210	
          0.12659439	         -7.49271231	         -6.50461061	          0.21977663	          0.18329203	          0.90115767	         -0.00410698	          1.62839153	         -7.50625259	         -4.20941221	         21.47567760	          9.05119225	          3.91494397	        -52.03169481	         -6.00210394	         -4.24939646	         -0.69092643	          7.66884769	        -10.47994993	         16.76636734	          0.33891139	          3.41360780	          8.87904073	         -5.08366551	         -5.24513676	        -13.51836475	         18.40951048	        -24.89188906	        -13.49975699	         12.36740876	         91.18666543	          6.52809630	          0.05000444	          0.05000269	          0.05000260	          0.14726011	          0.05001060	          0.05000869	          0.06762651	          0.13956229	          0.05002595	          0.20420104	          0.32107550	          0.20267657	          0.33516039	          0.19581155	          0.05001767	          0.05000284	          0.79571262	          0.53478653	          0.35266300	          0.05002435	          0.05000770	          0.05000230	          0.17072186	          0.16235876	          0.37086403	          0.27725191	          0.05001968	          0.05000256	          0.05000056	          0.05000052	          0.05000039	          0.14228425	          0.14357931	          0.06171257	          0.14393374	          0.13142874	          0.12538774	          0.21313668	          0.10716591	          0.07758465	          0.44083304	          0.86941667	          0.82094485	          0.16583771	          0.18580988	          0.05000408	          0.18990771	          0.26994718	          0.38520456	          0.15719516	          0.13826212	          0.18206258	          0.13101183	          0.17793543	          0.12769982	          0.10580599	          0.05001645	          0.06126657	          0.14508237	          0.15204771	          0.20768272	          0.15503485	          0.05001307	          0.05012377	          0.15546288	          0.28572306	          0.22240611	          0.18131299	          0.05000356	          0.05000358	          0.08525226	          0.05004789	          0.29272599	          0.05000280	          0.05191805	          0.05752240	          0.05239368	          0.05042492	          0.05042486	          0.05042519	          0.05042391	          0.05042473	          0.05042491	          0.05042537	          0.05042533	          0.05042513	          0.05042501	          0.05042513	          0.05042505	          0.09832639	          0.05000139	          0.05000214	
